<?xml version="1.0" encoding="utf-8"?>
<!-- Generator: Adobe Illustrator 21.0.0, SVG Export Plug-In . SVG Version: 6.00 Build 0)  -->
<svg version="1.1" id="Calque_1" xmlns="http://www.w3.org/2000/svg" xmlns:xlink="http://www.w3.org/1999/xlink" x="0px" y="0px"
	 viewBox="0 0 2800 1600" style="enable-background:new 0 0 2800 1600;" xml:space="preserve">
<style type="text/css">
	.st0{fill:#231F20;}
</style>
<g>
	<path class="st0" d="M965.6,828.8h-62.1c3.3,59.1,16.5,116.4,39.6,170.9c25.9,61.2,62.9,116.1,110,163.2
		c47.2,47.1,102.1,84.2,163.2,110c63.3,26.8,130.6,40.4,199.9,40.4c69.3,0,136.6-13.6,199.9-40.4c61.2-25.9,116.1-62.9,163.2-110
		c47.1-47.2,84.2-102.1,110-163.2c23-54.5,36.3-111.8,39.6-170.9h-62.1c-15,235.5-211.4,422.5-450.6,422.5S980.6,1064.3,965.6,828.8
		z M1216.3,326.7c-61.2,25.9-116.1,62.9-163.2,110c-47.1,47.2-84.2,102.1-110,163.2c-22,52-35.1,106.6-39.1,162.9h62.2
		c18.9-231.7,213.5-414.5,450-414.5s431.1,182.8,450,414.5h62.2c-4-56.3-17.1-110.9-39.1-162.9c-25.9-61.2-62.9-116.1-110-163.2
		c-47.2-47.1-102.1-84.2-163.2-110c-63.3-26.8-130.6-40.4-199.9-40.4C1346.9,286.3,1279.6,299.9,1216.3,326.7z"/>
</g>
<path class="st0" d="M1820,657.5l46.4-12.5c3.2-0.9,6.3,1.5,6.3,4.8v107.7c0,3.2-3,5.6-6.1,4.9l-46.6-10.9h-630
	c36.7-51.4,75.2-101.5,115.5-150.1c40-47.7,85.7-90.7,137.1-129c20.5-14.1,44.3-27.5,71.5-40.4c25.1-11.3,51.1-17,77.9-17
	c0,0,0,0,0,0c53.8,4.6,95.7,33.8,125.6,87.6c20.8,36.1,31.2,70.5,31.2,103.2c0,18-2.9,35.3-8.7,51.8H1820z M1640.8,642.6
	c4.5-5.2,7.7-9.4,9.5-12.6c2.5-5.8,3.7-13,3.7-21.5c0-13.4-4.4-30.3-13.3-50.4c-11.5-28-27.1-44.4-46.8-49c-3.3-0.8-6.7-1-10.1-0.6
	c-34.5,3.2-71.4,22.8-110.9,58.8c-24.8,22-44.2,40-58.2,53.9c-14.1,13.9-25.4,26.1-33.9,36.5l227.3,0
	C1620.6,657.5,1632.6,652.1,1640.8,642.6z"/>
<g>
	<path class="st0" d="M1492.4,828.5c24.1,0,52.3,4.9,84.8,14.7c20.4,7.6,38.6,15.6,54.7,24.2c21,13,38.1,25.9,51.4,38.8
		c9.9,11.7,16.8,20.4,20.8,26l6.5,9.9l6,9.5c1.2,2.8,5.6,14.5,13,35l3.2,11.8l1.9,8.5l13.9,59.2h-107.9v-44.5
		c-4.6-29-20.5-50.7-47.7-64.9c-26.6-14.8-51.7-24.6-75.5-29.4c-15.4-1.3-24.1-1.9-25.9-1.9H917.6l-47.5,12.1
		c-3.2,0.8-6.2-1.6-6.2-4.8V821.6c0-3.2,3-5.6,6.2-4.9l47.5,11.7H1492.4z"/>
</g>
</svg>
